# xmcd CD database file
#
# Track frame offsets:
#	150
#	27625
#	49620
#	72005
#	95170
#	125927
#	148337
#	169407
#	191467
#	213300
#	234850
#	256542
#
# Disc length: 3763 seconds
#
# Revision: 0
# Processed by: cddbd v1.5.2PL0 Copyright (c) Steve Scherf et al.
# Submitted via: CDex 1.70beta2
#
DISCID=b10eb10c
DTITLE=India and Marc Anthony - India Frente a Frente Marc Anthony
DYEAR=1996
DGENRE=Salsa
TTITLE0=India and Marc Anthony - Vivir Lo Nuestro
TTITLE1=Marc Anthony - Se Me Sigue Olvidando
TTITLE2=India - Nunca Voy A Olvidarte
TTITLE3=Marc Anthony - Te Conozco Bien
TTITLE4=India - No Me Conviene
TTITLE5=Marc Anthony - Palabras Del Alma
TTITLE6=India - Ese Hombre
TTITLE7=Marc Anthony - Llegaste A Mi
TTITLE8=India - Que Ganas De No Verte Mas
TTITLE9=Marc Anthony - Te Amare
TTITLE10=India - O Ella O Yo
TTITLE11=India and Marc Anthony - Remix
EXTD=YEAR: 1996
EXTT0=
EXTT1=
EXTT2=
EXTT3=
EXTT4=
EXTT5=
EXTT6=
EXTT7=
EXTT8=
EXTT9=
EXTT10=
EXTT11=
PLAYORDER=
